<svg id="fd6f8024-4742-4408-a261-f195471ac871" data-name="Layer 1" xmlns="http://www.w3.org/2000/svg" xmlns:xlink="http://www.w3.org/1999/xlink" viewBox="0 0 1125 2436"><defs><style>.abc6e156-3cad-4fb4-9b5d-b5384cc14bd9,.f461dad6-29d5-4aec-b4a5-d35beb661366{fill:none;}.a5be28b9-5087-48ec-ab65-1d3fc103450b{fill:#231f20;}.fdccef82-79e4-4845-832a-2e009cb2069d{fill:url(#a21dd1ff-29cf-4547-ab5c-b53323b0357e);}.b19465ba-f837-46dc-8d72-26eef87c6344{fill:url(#f22371fc-cfb2-42c1-a45f-a4b832d26a46);}.a764ff2f-d091-4e23-811a-52471bcdd33c{fill:#f58235;}.eceaa88f-a334-4786-9d42-69c1b3488217{fill:url(#f09fc881-fb6e-47b9-97c3-efd1223863ed);}.f461dad6-29d5-4aec-b4a5-d35beb661366{stroke:#f58235;stroke-miterlimit:10;stroke-width:90px;}.e8314598-4468-4321-83a2-4f0a20d885cb{clip-path:url(#a28fd33c-417e-436c-807c-f76f4b013c5b);}.a2c11929-4dbf-40aa-b598-253cc48ada0b{fill:url(#bf5887de-ad34-41f3-8285-036d6c02a2d2);}.f681351f-61e3-451b-9775-e6c9288cecdf{fill:#5d77ff;}</style><linearGradient id="a21dd1ff-29cf-4547-ab5c-b53323b0357e" x1="-286.5" y1="544.84" x2="-286.5" y2="-1354.88" gradientTransform="translate(613.4 434.1) scale(1 0.33)" gradientUnits="userSpaceOnUse"><stop offset="0" stop-color="#f58235"/><stop offset="1" stop-color="#ee2d28"/></linearGradient><linearGradient id="f22371fc-cfb2-42c1-a45f-a4b832d26a46" x1="801.16" y1="1569.54" x2="801.16" y2="510.52" gradientTransform="translate(-182 -39.9)" gradientUnits="userSpaceOnUse"><stop offset="0" stop-color="#f0533b"/><stop offset="1" stop-color="#ed1c24"/></linearGradient><linearGradient id="f09fc881-fb6e-47b9-97c3-efd1223863ed" x1="10.21" y1="1795.66" x2="746.6" y2="1795.66" gradientTransform="translate(1380.6 258.4) rotate(45)" xlink:href="#a21dd1ff-29cf-4547-ab5c-b53323b0357e"/><clipPath id="a28fd33c-417e-436c-807c-f76f4b013c5b"><rect class="abc6e156-3cad-4fb4-9b5d-b5384cc14bd9" y="2508" width="1125" height="2435.17"/></clipPath><linearGradient id="bf5887de-ad34-41f3-8285-036d6c02a2d2" x1="390.17" y1="3026.46" x2="550.23" y2="3026.46" gradientUnits="userSpaceOnUse"><stop offset="0" stop-color="#5d77ff"/><stop offset="1" stop-color="#318fe6"/></linearGradient></defs><rect class="a5be28b9-5087-48ec-ab65-1d3fc103450b" width="1125" height="2436"/><rect class="fdccef82-79e4-4845-832a-2e009cb2069d" x="192.6" y="-10.3" width="268.7" height="623.22" transform="translate(358.7 -142.2) rotate(51.4)"/><rect class="b19465ba-f837-46dc-8d72-26eef87c6344" x="467.5" y="470.6" width="303.2" height="1059.02" transform="translate(475.6 -167.3) rotate(24.8)"/><path class="a764ff2f-d091-4e23-811a-52471bcdd33c" d="M563.6,571.7v663.5H407.7V571.7H563.6m90-90H317.7v843.5H653.6V481.7Z"/><path class="a764ff2f-d091-4e23-811a-52471bcdd33c" d="M921.9,1553.7l60.6,60.6L561.3,2035.6,500.7,1975l421.2-421.3m0-127.2L373.4,1975l187.9,187.9,548.5-548.6L921.9,1426.5Z"/><rect class="eceaa88f-a334-4786-9d42-69c1b3488217" x="245.6" y="1407.8" width="265.7" height="775.71" transform="translate(-1158.9 793.5) rotate(-45)"/><rect class="f461dad6-29d5-4aec-b4a5-d35beb661366" x="255.7" y="2222.9" width="613.7" height="158.91"/><g class="e8314598-4468-4321-83a2-4f0a20d885cb"><polygon class="a2c11929-4dbf-40aa-b598-253cc48ada0b" points="550.2 3648.2 390.2 3555.8 390.2 2404.7 550.2 2497.1 550.2 3648.2"/><polygon class="f681351f-61e3-451b-9775-e6c9288cecdf" points="710.3 2404.7 550.2 2497.1 550.2 3648.2 710.3 3555.8 710.3 2404.7 710.3 2404.7"/></g></svg>